<?xml version="1.0" encoding="UTF-8" standalone="no"?>
<svg width="32px" height="32px" viewBox="0 0 32 32" version="1.1" xmlns="http://www.w3.org/2000/svg" xmlns:xlink="http://www.w3.org/1999/xlink">
    <title>channels</title>
    <g id="Page-1" stroke="none" stroke-width="1" fill="none" fill-rule="evenodd">
        <g class="icon" fill="#B2B7C4">
            <path d="M30,2 L30,8.9999125 L22.1250984,9.87490156 L22,5 L30,2 Z M2,2 L10,5 L10,10 L2,9 L2,2 Z M13,10 L13,5 L19,5 L19,10 L13,10 Z M22,13 L30,12 L30,18.9980469 L22,18 L22,13 Z M2,19 L2,12 L10,13 L10,18 L2,19 Z M13,18 L13,13 L19,13 L19,18 L13,18 Z M22,26 L22,21 L30,22 L30,29 L22,26 Z M2,21.961792 L10,21 L10,26 L2,29 L2,21.961792 Z M13,26 L13,21 L19,21 L19,26 L13,26 Z" id="Combined-Shape"></path>
        </g>
    </g>
</svg>
