<?xml version="1.0" encoding="UTF-8"?>
<svg version="1.1" viewBox="0 0 146 180" xmlns="http://www.w3.org/2000/svg">
<g fill="none" fill-rule="evenodd">
<path d="m43.282 180c-0.28841 0-0.58126-0.056066-0.86376-0.1741-1.127-0.47508-1.6565-1.7734-1.1788-2.9007 0.017748-0.044262 2.084-5.0784 2.084-12.728 0-7.9008-2.1786-17.222-2.2008-17.315-0.27954-1.1907 0.45998-2.3828 1.6521-2.6616 1.1951-0.2818 2.3857 0.45738 2.6667 1.6466 0.094658 0.40131 2.3191 9.9207 2.3191 18.33 0 8.6046-2.3354 14.217-2.4345 14.452-0.35793 0.84393-1.1803 1.3515-2.044 1.3515" fill="#252525"/>
<path d="m115.62 178.45c-0.28841 0-0.58126-0.056066-0.86228-0.1741-1.13-0.47656-1.658-1.7749-1.1803-2.9007 0.017749-0.044262 2.0869-5.0813 2.0869-12.728 0-7.9038-2.1816-17.225-2.2023-17.318-0.28102-1.1892 0.45702-2.3798 1.6491-2.6616 1.1877-0.28033 2.3886 0.4559 2.6682 1.6466 0.094659 0.40131 2.3221 9.9207 2.3221 18.333 0 8.6031-2.3384 14.217-2.4375 14.452-0.35793 0.84393-1.1803 1.3515-2.044 1.3515" fill="#252525"/>
<path d="m46.822 56.798c7.7354-4.8925 19.761-7.3402 36.009-7.3402 16.243 0 28.529 2.4477 36.27 7.3402 7.7369 4.8954 10.472 9.9295 12.459 20.25 1.7157 8.907 5.3911 47.55 5.3911 56.508 0 8.9513-4.1457 15.878-11.886 20.772-7.7413 4.8925-25.823 7.3416-42.065 7.3416-16.246 0-36.303-2.4492-44.041-7.3416-7.7369-4.8939-10.662-10.11-11.741-20.772-0.97321-9.6448 5.9487-46.858 7.935-55.984 1.9849-9.1239 3.9328-15.878 11.668-20.774" fill="#70D031"/>
<path d="m50.69 70.246c-0.10353-12.985-10.732-23.425-23.746-23.325-13.011 0.1018-23.48 10.706-23.378 23.688 0.10057 12.979 10.73 23.422 23.744 23.325 13.005-0.10475 23.477-10.711 23.379-23.688" fill="#EBEBEB"/>
<path d="m27.129 47.792h-0.17896c-12.508 0.097377-22.607 10.331-22.512 22.808 0.099096 12.386 10.275 22.46 22.691 22.463l0.17305-0.0029509c12.508-0.098852 22.607-10.331 22.512-22.808-0.099096-12.383-10.275-22.46-22.686-22.46zm0 49.698c-14.842-0.0029508-27.013-12.048-27.129-26.855-0.11537-14.918 11.96-27.15 26.914-27.269h0.21446c14.836 0 27.007 12.045 27.123 26.851 0.11241 14.919-11.962 27.152-26.914 27.27l-0.20854 0.0029508z" fill="#70D031"/>
<path d="m42.749 70.307c-0.066557-8.6075-7.1157-15.532-15.749-15.462-8.6184 0.064918-15.562 7.0938-15.496 15.704 0.066557 8.6075 7.1201 15.527 15.738 15.461 8.6317-0.066394 15.573-7.0952 15.506-15.703" fill="#70D031"/>
<path d="m36.318 70.359c-0.036976-5.0636-4.1857-9.1372-9.2677-9.1003-5.0687 0.036885-9.1538 4.1784-9.1168 9.239 0.038455 5.0621 4.1886 9.1343 9.2588 9.0974 5.082-0.041311 9.1656-4.1754 9.1257-9.2361" fill="#252525"/>
<path d="m42.665 59.645c-0.036976-5.0739-4.1975-9.1638-9.2869-9.121-5.0938 0.041312-9.1893 4.1872-9.1493 9.2656 0.038455 5.0739 4.2005 9.1638 9.2869 9.1254 5.0968-0.042787 9.1893-4.1872 9.1493-9.27" fill="#EBEBEB"/>
<path d="m143.16 44.571c-0.10058-13.016-10.76-23.486-23.81-23.385-13.045 0.1018-23.543 10.735-23.441 23.748 0.10353 13.013 10.763 23.486 23.808 23.388 13.047-0.10475 23.543-10.741 23.443-23.751" fill="#EBEBEB"/>
<path d="m135.16 44.634c-0.066557-8.6075-7.1157-15.532-15.749-15.462-8.6184 0.061967-15.565 7.0938-15.496 15.704 0.066557 8.6075 7.1231 15.524 15.738 15.458 8.6317-0.063443 15.573-7.0923 15.506-15.7" fill="#70D031"/>
<path d="m128.73 44.683c-0.036976-5.0607-4.1827-9.1372-9.2647-9.0974-5.0716 0.036885-9.1567 4.1754-9.1198 9.239 0.038455 5.0621 4.1886 9.1343 9.2588 9.0974 5.082-0.044262 9.1656-4.1754 9.1257-9.239" fill="#252525"/>
<path d="m134.06 34.551c-0.036976-5.0739-4.1946-9.1638-9.2869-9.1239-5.0909 0.044262-9.1893 4.1902-9.1493 9.2685 0.039934 5.0739 4.2034 9.1638 9.2898 9.1225 5.0968-0.039836 9.1893-4.1872 9.1464-9.267" fill="#EBEBEB"/>
<polygon points="62.417 47.748 20.25 13.396 28.67 3.1106 70.836 37.463" fill="#252525"/>
<path d="m119.37 23.399h0.17305c11.708 0 21.31 9.5031 21.4 21.188 0.011832 1.3205-0.11832 2.6115-0.3387 3.867h-42.126c-0.20559-1.1523-0.33722-2.3282-0.34905-3.538-0.090221-11.772 9.4377-21.426 21.24-21.517m0.17305-4.4262h-0.20706c-14.248 0.11213-25.752 11.766-25.644 25.978 0.11241 14.106 11.705 25.584 25.845 25.584h0.19967c14.251-0.11213 25.753-11.768 25.644-25.98-0.10945-14.106-11.699-25.581-25.837-25.581" fill="#70D031"/>
<polygon points="89.451 41.91 81.986 30.915 127.07 0.46151 134.53 11.456" fill="#252525"/>
<path d="m112.42 90.47l-14.373 15.139-13.828-23.399c-0.10797 0.01623-0.21298 0.022131-0.32095 0.039836-1.2128 0.19033-2.4123 0.42787-3.6015 0.69049l-13.668 34.505-14.566-19.706c-8.0046 7.6338-12.999 17.22-12.999 27.106 0 10.117 5.1559 16.635 13.455 20.61l17.822-20.343 10.063 25.625c1.1551 0.026557 2.3162 0.045738 3.4935 0.045738 1.2498 0 2.4833-0.020656 3.7065-0.050164l15.094-38.192 15.719 31.196c6.4397-4.05 10.313-10.118 10.313-18.891 0-11.619-5.9694-25.57-16.311-34.377" fill="#252525"/>
<path d="m112.42 90.47c-7.3686-6.2749-16.956-9.9325-28.201-8.2593l13.828 23.399 14.373-15.139z" fill="#EBEBEB"/>
<path d="m80.292 82.941c-10.94 2.4123-20.863 7.7725-28.232 14.798l14.564 19.707 13.668-34.505z" fill="#EBEBEB"/>
<path d="m87.6 150.73c12.375-0.31869 23.327-2.2913 30.813-6.9964l-15.719-31.196-15.094 38.192z" fill="#EBEBEB"/>
<path d="m52.514 145.46c7.3079 3.4982 17.056 5.0208 27.886 5.282l-10.063-25.623-17.822 20.341z" fill="#EBEBEB"/>
</g>
</svg>
