<?xml version="1.0" encoding="UTF-8"?>
<svg width="32px" height="32px" version="1.1" viewBox="0 0 32 32" xmlns="http://www.w3.org/2000/svg">
<title>search-icon</title>
  <g fill="none" fill-rule="evenodd">
    <g class="icon" fill="#B2B7C4">
      <path d="m32 28.466l-8.2141-8.2143c3.4071-5.0542 2.879-11.971-1.592-16.444-2.54-2.5391-5.8661-3.8081-9.1941-3.8081-3.3261 0-6.6541 1.269-9.1911 3.8081-5.0781 5.0772-5.0781 13.308 0 18.384 2.538 2.5401 5.8651 3.8081 9.1911 3.8081 2.535 0 5.0661-0.74002 7.2511-2.2121l8.2131 8.2123 3.5361-3.5341zm-25.363-9.1013c-1.7-1.7011-2.636-3.9611-2.636-6.3652 0-2.4031 0.93601-4.6641 2.637-6.3632 1.699-1.7001 3.9581-2.6371 6.3621-2.6371 2.403 0 4.6651 0.93703 6.3641 2.6371 3.5091 3.5081 3.5101 9.2193 0 12.728-1.699 1.6991-3.9611 2.6351-6.3641 2.6351-2.403 0-4.6631-0.93603-6.3631-2.6351z"/>
    </g>
  </g>
</svg>
