<?xml version="1.0" encoding="UTF-8"?>
<svg version="1.1" viewBox="0 0 32 32" xmlns="http://www.w3.org/2000/svg">
  <title>settings-icon</title>
  <g fill="none" fill-rule="evenodd">
    <g class="icon" fill="#B2B7C4">
    <path d="m17.531 19.695c-2.037 0.84398-4.3789-0.124-5.2249-2.166-0.84498-2.04 0.124-4.3789 2.163-5.2249 2.039-0.84298 4.3799 0.125 5.2259 2.164 0.84598 2.041-0.127 4.3839-2.164 5.2269m14.157 0.025999l-3.5819-1.484c0.27099-1.458 0.28499-2.9719 0.0059999-4.4769l3.5759-1.481c0.25699-0.107 0.37999-0.40399 0.27399-0.65999l-1.577-3.8089c-0.106-0.25499-0.40299-0.37899-0.65899-0.27199l-3.5779 1.482c-0.86698-1.262-1.949-2.3239-3.1699-3.1629l1.484-3.5819c0.106-0.25699-0.017-0.55399-0.27399-0.65999l-3.8069-1.577c-0.25599-0.107-0.55199 0.017-0.65899 0.27399l-1.484 3.5819c-1.457-0.26999-2.9729-0.28499-4.4769-0.0059999l-1.483-3.5759c-0.106-0.25699-0.40299-0.38099-0.65899-0.27399l-3.8079 1.577c-0.25699 0.108-0.37999 0.40499-0.27299 0.65999l1.481 3.5789c-1.26 0.86498-2.3209 1.946-3.1599 3.1669l-3.5829-1.484c-0.25599-0.106-0.55399 0.018-0.65899 0.27299l-1.577 3.8089c-0.107 0.25599 0.016 0.55299 0.27299 0.65999l3.5819 1.484c-0.26999 1.455-0.28599 2.9699-0.0059999 4.4749l-3.5779 1.483c-0.25699 0.106-0.37999 0.40299-0.27299 0.65999l1.579 3.8079c0.106 0.25599 0.40299 0.37999 0.65899 0.27399l3.5779-1.483c0.86698 1.262 1.947 2.3229 3.1679 3.1599l-1.483 3.5839c-0.107 0.25599 0.016 0.55299 0.27299 0.65999l3.8079 1.577c0.25699 0.108 0.55299-0.017 0.65899-0.27299l1.484-3.5829c1.457 0.26999 2.9709 0.28599 4.4779 0.0049999l1.482 3.5779c0.107 0.25599 0.40399 0.37899 0.65999 0.27299l3.8069-1.578c0.25699-0.106 0.37999-0.40299 0.27399-0.65899l-1.483-3.5779c1.262-0.86698 2.3219-1.947 3.1609-3.1679l3.5829 1.484c0.25599 0.107 0.55399-0.017 0.65999-0.27299l1.577-3.8079c0.106-0.25699-0.017-0.55499-0.27399-0.65999"/>
    </g>
  </g>
</svg>
