<?xml version="1.0" encoding="UTF-8" standalone="no"?>
<svg width="32px" height="32px" viewBox="0 0 32 32" version="1.1" xmlns="http://www.w3.org/2000/svg" xmlns:xlink="http://www.w3.org/1999/xlink">
    <!-- Generator: Sketch 47.1 (45422) - http://www.bohemiancoding.com/sketch -->
    <title>Signed-in 32px_720</title>
    <desc>Created with Sketch.</desc>
    <defs></defs>
    <g id="Flow-and-thinking" stroke="none" stroke-width="1" fill="none" fill-rule="evenodd">
        <g id="Helvetica-TV-homepage-signed-in-high-priority" transform="translate(-340.000000, -43.000000)" fill="#B2B7C4">
            <path d="M349.999,58.9996 C349.999,55.6866 352.686,52.9996 356,52.9996 C359.315,52.9996 362.001,55.6866 362.001,58.9996 C362.001,62.3136 359.315,64.9996 356,64.9996 C352.686,64.9996 349.999,62.3136 349.999,58.9996 Z M356,43 C364.837,43 372,50.168 372,59.004 C372,63.674 369.987,67.866 366.798,70.791 L365.863,68.926 C368.413,66.391 370,62.903 370,59.031 C370,51.312 363.72,45.062 356,45.062 C348.28,45.062 342,51.405 342,59.124 C342,64.005 344.515,68.43 348.311,70.937 L350,67.498 L362,67.498 L364.587,72.735 C362.104,74.319 359.163,75 356,75 C347.163,75 340,67.837 340,59 C340,50.164 347.163,43 356,43 Z" id="Signed-in-32px"></path>
        </g>
    </g>
</svg>